{
  "accessors": [
    {
      "bufferView": 2,
      "componentType": 5126,
      "count": 61374,
      "max": [
        0.7334219813346863,
        3.9317469596862793,
        3.8815019130706787
      ],
      "min": [
        -0.6349470019340515,
        -3.4396231174468994,
        0.019123999401926994
      ],
      "type": "VEC3"
    },
    {
      "bufferView": 2,
      "byteOffset": 736488,
      "componentType": 5126,
      "count": 61374,
      "max": [
        0.9999998807907104,
        0.9999722242355347,
        0.9999979734420776
      ],
      "min": [
        -0.9999996423721313,
        -0.9999759793281555,
        -0.9999971389770508
      ],
      "type": "VEC3"
    },
    {
      "bufferView": 3,
      "componentType": 5126,
      "count": 61374,
      "max": [
        0.9999954700469971,
        0.9999989867210388,
        0.9999912977218628,
        1.0
      ],
      "min": [
        -0.9999992251396179,
        -0.9999877214431763,
        -0.9999999403953552,
        -1.0
      ],
      "type": "VEC4"
    },
    {
      "bufferView": 1,
      "componentType": 5126,
      "count": 61374,
      "max": [
        0.9970189929008484,
        0.9999520182609558
      ],
      "min": [
        5.8000001445179805e-05,
        0.0
      ],
      "type": "VEC2"
    },
    {
      "bufferView": 0,
      "componentType": 5125,
      "count": 273861,
      "type": "SCALAR"
    }
  ],
  "asset": {
    "extras": {
      "author": "Lassi Kaukonen (https://sketchfab.com/thesidekick)",
      "license": "CC-BY-4.0 (http://creativecommons.org/licenses/by/4.0/)",
      "source": "https://sketchfab.com/3d-models/amd-radeon-hd6850-caabf8fc638d4b35818f36e9a7c04dbd",
      "title": "AMD Radeon HD6850"
    },
    "generator": "Sketchfab-12.68.0",
    "version": "2.0"
  },
  "bufferViews": [
    {
      "buffer": 0,
      "byteLength": 1095444,
      "name": "floatBufferViews",
      "target": 34963
    },
    {
      "buffer": 0,
      "byteLength": 490992,
      "byteOffset": 1095444,
      "byteStride": 8,
      "name": "floatBufferViews",
      "target": 34962
    },
    {
      "buffer": 0,
      "byteLength": 1472976,
      "byteOffset": 1586436,
      "byteStride": 12,
      "name": "floatBufferViews",
      "target": 34962
    },
    {
      "buffer": 0,
      "byteLength": 981984,
      "byteOffset": 3059412,
      "byteStride": 16,
      "name": "floatBufferViews",
      "target": 34962
    }
  ],
  "buffers": [
    {
      "byteLength": 4041396,
      "uri": "scene.bin"
    }
  ],
  "images": [
    {
      "uri": "textures/Radeon_HD6850_baseColor.jpeg"
    },
    {
      "uri": "textures/Radeon_HD6850_metallicRoughness.png"
    },
    {
      "uri": "textures/Radeon_HD6850_normal.png"
    }
  ],
  "materials": [
    {
      "doubleSided": true,
      "emissiveFactor": [
        0.38192945439952325,
        0.38192945439952325,
        0.38192945439952325
      ],
      "emissiveTexture": {
        "index": 0
      },
      "name": "Radeon_HD6850",
      "normalTexture": {
        "index": 2
      },
      "occlusionTexture": {
        "index": 1
      },
      "pbrMetallicRoughness": {
        "baseColorTexture": {
          "index": 0
        },
        "metallicFactor": 0.0,
        "metallicRoughnessTexture": {
          "index": 1
        }
      }
    }
  ],
  "meshes": [
    {
      "name": "Object_0",
      "primitives": [
        {
          "attributes": {
            "NORMAL": 1,
            "POSITION": 0,
            "TANGENT": 2,
            "TEXCOORD_0": 3
          },
          "indices": 4,
          "material": 0,
          "mode": 4
        }
      ]
    }
  ],
  "nodes": [
    {
      "children": [
        1
      ],
      "matrix": [
        1.0,
        0.0,
        0.0,
        0.0,
        0.0,
        2.220446049250313e-16,
        -1.0,
        0.0,
        0.0,
        1.0,
        2.220446049250313e-16,
        0.0,
        0.0,
        0.0,
        0.0,
        1.0
      ],
      "name": "Sketchfab_model"
    },
    {
      "children": [
        2
      ],
      "name": "Radeon_HD6850_SF.obj.cleaner.materialmerger.gles"
    },
    {
      "mesh": 0,
      "name": "Object_2"
    }
  ],
  "samplers": [
    {
      "magFilter": 9729,
      "minFilter": 9987,
      "wrapS": 10497,
      "wrapT": 10497
    }
  ],
  "scene": 0,
  "scenes": [
    {
      "name": "Sketchfab_Scene",
      "nodes": [
        0
      ]
    }
  ],
  "textures": [
    {
      "sampler": 0,
      "source": 0
    },
    {
      "sampler": 0,
      "source": 1
    },
    {
      "sampler": 0,
      "source": 2
    }
  ]
}
