{
  "accessors": [
    {
      "bufferView": 2,
      "componentType": 5126,
      "count": 8588,
      "max": [
        0.23569999635219574,
        1.301220037223998e-17,
        0.1400350034236908
      ],
      "min": [
        -0.007499999832361937,
        -0.1525000035762787,
        -0.01996530033648014
      ],
      "type": "VEC3"
    },
    {
      "bufferView": 2,
      "byteOffset": 103056,
      "componentType": 5126,
      "count": 8588,
      "max": [
        1.0,
        1.0,
        1.0
      ],
      "min": [
        -1.0,
        -1.0,
        -1.0
      ],
      "type": "VEC3"
    },
    {
      "bufferView": 3,
      "componentType": 5126,
      "count": 8588,
      "max": [
        0.9254902005195618,
        0.9254902005195618,
        0.9254902005195618,
        1.0
      ],
      "min": [
        0.4941176474094391,
        0.4941176474094391,
        0.5254902243614197,
        1.0
      ],
      "type": "VEC4"
    },
    {
      "bufferView": 1,
      "componentType": 5126,
      "count": 8588,
      "max": [
        6.213369846343994,
        1.0471999645233154
      ],
      "min": [
        -8.22189998626709,
        -0.1400350034236908
      ],
      "type": "VEC2"
    },
    {
      "bufferView": 0,
      "componentType": 5125,
      "count": 26451,
      "type": "SCALAR"
    },
    {
      "bufferView": 2,
      "byteOffset": 206112,
      "componentType": 5126,
      "count": 9442,
      "max": [
        0.23600000143051147,
        1.3877799388343032e-17,
        0.1400350034236908
      ],
      "min": [
        -0.007499999832361937,
        -0.1525000035762787,
        -0.01996530033648014
      ],
      "type": "VEC3"
    },
    {
      "bufferView": 2,
      "byteOffset": 319416,
      "componentType": 5126,
      "count": 9442,
      "max": [
        1.0,
        1.0,
        1.0
      ],
      "min": [
        -1.0,
        -1.0,
        -1.0
      ],
      "type": "VEC3"
    },
    {
      "bufferView": 3,
      "byteOffset": 137408,
      "componentType": 5126,
      "count": 9442,
      "max": [
        1.0,
        1.0,
        1.0,
        1.0
      ],
      "min": [
        0.9254902005195618,
        0.9254902005195618,
        0.9254902005195618,
        1.0
      ],
      "type": "VEC4"
    },
    {
      "bufferView": 1,
      "byteOffset": 68704,
      "componentType": 5126,
      "count": 9442,
      "max": [
        8.866270065307617,
        1.0471999645233154
      ],
      "min": [
        -3.630280017852783,
        -0.11100000143051147
      ],
      "type": "VEC2"
    },
    {
      "bufferView": 0,
      "byteOffset": 105804,
      "componentType": 5125,
      "count": 29106,
      "type": "SCALAR"
    },
    {
      "bufferView": 2,
      "byteOffset": 432720,
      "componentType": 5126,
      "count": 8380,
      "max": [
        0.26249998807907104,
        1.3877799388343032e-17,
        0.15003499388694763
      ],
      "min": [
        -0.007499999832361937,
        -0.011500000022351742,
        0.03553469851613045
      ],
      "type": "VEC3"
    },
    {
      "bufferView": 2,
      "byteOffset": 533280,
      "componentType": 5126,
      "count": 8380,
      "max": [
        1.0,
        1.0,
        1.0
      ],
      "min": [
        -1.0,
        -1.0,
        -1.0
      ],
      "type": "VEC3"
    },
    {
      "bufferView": 3,
      "byteOffset": 288480,
      "componentType": 5126,
      "count": 8380,
      "max": [
        0.9254902005195618,
        0.9254902005195618,
        0.9254902005195618,
        1.0
      ],
      "min": [
        0.9254902005195618,
        0.9254902005195618,
        0.9254902005195618,
        1.0
      ],
      "type": "VEC4"
    },
    {
      "bufferView": 1,
      "byteOffset": 144240,
      "componentType": 5126,
      "count": 8380,
      "max": [
        6.213369846343994,
        1.0471999645233154
      ],
      "min": [
        -8.22189998626709,
        -0.027499999850988388
      ],
      "type": "VEC2"
    },
    {
      "bufferView": 0,
      "byteOffset": 222228,
      "componentType": 5125,
      "count": 26190,
      "type": "SCALAR"
    },
    {
      "bufferView": 2,
      "byteOffset": 633840,
      "componentType": 5126,
      "count": 8052,
      "max": [
        0.26249998807907104,
        -0.14249999821186066,
        0.15003499388694763
      ],
      "min": [
        -0.007499999832361937,
        -0.1525000035762787,
        -0.01996530033648014
      ],
      "type": "VEC3"
    },
    {
      "bufferView": 2,
      "byteOffset": 730464,
      "componentType": 5126,
      "count": 8052,
      "max": [
        1.0,
        1.0,
        1.0
      ],
      "min": [
        -1.0,
        -1.0,
        -1.0
      ],
      "type": "VEC3"
    },
    {
      "bufferView": 3,
      "byteOffset": 422560,
      "componentType": 5126,
      "count": 8052,
      "max": [
        0.9254902005195618,
        0.9254902005195618,
        0.9254902005195618,
        1.0
      ],
      "min": [
        0.9254902005195618,
        0.9254902005195618,
        0.9254902005195618,
        1.0
      ],
      "type": "VEC4"
    },
    {
      "bufferView": 1,
      "byteOffset": 211280,
      "componentType": 5126,
      "count": 8052,
      "max": [
        8.866270065307617,
        1.0471999645233154
      ],
      "min": [
        -8.22189998626709,
        -0.009999999776482582
      ],
      "type": "VEC2"
    },
    {
      "bufferView": 0,
      "byteOffset": 326988,
      "componentType": 5125,
      "count": 26178,
      "type": "SCALAR"
    },
    {
      "bufferView": 2,
      "byteOffset": 827088,
      "componentType": 5126,
      "count": 5368,
      "max": [
        0.26249998807907104,
        4.163339981939032e-17,
        0.15003499388694763
      ],
      "min": [
        0.2524999976158142,
        -0.009999999776482582,
        -0.01996530033648014
      ],
      "type": "VEC3"
    },
    {
      "bufferView": 2,
      "byteOffset": 891504,
      "componentType": 5126,
      "count": 5368,
      "max": [
        1.0,
        1.0,
        1.0
      ],
      "min": [
        -1.0,
        -1.0,
        -1.0
      ],
      "type": "VEC3"
    },
    {
      "bufferView": 3,
      "byteOffset": 551392,
      "componentType": 5126,
      "count": 5368,
      "max": [
        0.9254902005195618,
        0.9254902005195618,
        0.9254902005195618,
        1.0
      ],
      "min": [
        0.9254902005195618,
        0.9254902005195618,
        0.9254902005195618,
        1.0
      ],
      "type": "VEC4"
    },
    {
      "bufferView": 1,
      "byteOffset": 275696,
      "componentType": 5126,
      "count": 5368,
      "max": [
        8.866270065307617,
        1.0471999645233154
      ],
      "min": [
        -8.22189998626709,
        -0.009999999776482582
      ],
      "type": "VEC2"
    },
    {
      "bufferView": 0,
      "byteOffset": 431700,
      "componentType": 5125,
      "count": 17484,
      "type": "SCALAR"
    },
    {
      "bufferView": 2,
      "byteOffset": 955920,
      "componentType": 5126,
      "count": 23564,
      "max": [
        0.20309999585151672,
        -0.011500000022351742,
        0.1400350034236908
      ],
      "min": [
        0.0024999999441206455,
        -0.05180000141263008,
        0.08503159880638123
      ],
      "type": "VEC3"
    },
    {
      "bufferView": 2,
      "byteOffset": 1238688,
      "componentType": 5126,
      "count": 23564,
      "max": [
        1.0,
        1.0,
        1.0
      ],
      "min": [
        -1.0,
        -1.0,
        -1.0
      ],
      "type": "VEC3"
    },
    {
      "bufferView": 3,
      "byteOffset": 637280,
      "componentType": 5126,
      "count": 23564,
      "max": [
        1.0,
        1.0,
        1.0,
        1.0
      ],
      "min": [
        1.0,
        1.0,
        1.0,
        1.0
      ],
      "type": "VEC4"
    },
    {
      "bufferView": 1,
      "byteOffset": 318640,
      "componentType": 5126,
      "count": 23564,
      "max": [
        11.388999938964844,
        0.19760000705718994
      ],
      "min": [
        -2.7568600177764893,
        -0.054999999701976776
      ],
      "type": "VEC2"
    },
    {
      "bufferView": 0,
      "byteOffset": 501636,
      "componentType": 5125,
      "count": 70983,
      "type": "SCALAR"
    },
    {
      "bufferView": 2,
      "byteOffset": 1521456,
      "componentType": 5126,
      "count": 9828,
      "max": [
        0.26249998807907104,
        9.71445014198114e-17,
        0.15003499388694763
      ],
      "min": [
        -0.007499999832361937,
        -0.1525000035762787,
        -0.01996530033648014
      ],
      "type": "VEC3"
    },
    {
      "bufferView": 2,
      "byteOffset": 1639392,
      "componentType": 5126,
      "count": 9828,
      "max": [
        1.0,
        1.0,
        1.0
      ],
      "min": [
        -1.0,
        -1.0,
        -1.0
      ],
      "type": "VEC3"
    },
    {
      "bufferView": 3,
      "byteOffset": 1014304,
      "componentType": 5126,
      "count": 9828,
      "max": [
        0.9254902005195618,
        0.9254902005195618,
        0.9254902005195618,
        1.0
      ],
      "min": [
        0.21960784494876862,
        0.21960784494876862,
        0.21960784494876862,
        1.0
      ],
      "type": "VEC4"
    },
    {
      "bufferView": 1,
      "byteOffset": 507152,
      "componentType": 5126,
      "count": 9828,
      "max": [
        6.073750019073486,
        0.24003499746322632
      ],
      "min": [
        -0.17100000381469727,
        -0.24003499746322632
      ],
      "type": "VEC2"
    },
    {
      "bufferView": 0,
      "byteOffset": 785568,
      "componentType": 5125,
      "count": 26742,
      "type": "SCALAR"
    },
    {
      "bufferView": 2,
      "byteOffset": 1757328,
      "componentType": 5126,
      "count": 5904,
      "max": [
        0.02250000089406967,
        -0.009999999776482582,
        0.066034696996212
      ],
      "min": [
        -0.007499999832361937,
        -0.14249999821186066,
        -0.005965290125459433
      ],
      "type": "VEC3"
    },
    {
      "bufferView": 2,
      "byteOffset": 1828176,
      "componentType": 5126,
      "count": 5904,
      "max": [
        1.0,
        1.0,
        1.0
      ],
      "min": [
        -1.0,
        -1.0,
        -1.0
      ],
      "type": "VEC3"
    },
    {
      "bufferView": 3,
      "byteOffset": 1171552,
      "componentType": 5126,
      "count": 5904,
      "max": [
        0.4941176474094391,
        0.4941176474094391,
        0.5254902243614197,
        1.0
      ],
      "min": [
        0.4941176474094391,
        0.4941176474094391,
        0.5254902243614197,
        1.0
      ],
      "type": "VEC4"
    },
    {
      "bufferView": 1,
      "byteOffset": 585776,
      "componentType": 5126,
      "count": 5904,
      "max": [
        6.073750019073486,
        0.066034696996212
      ],
      "min": [
        -0.13962599635124207,
        -0.066034696996212
      ],
      "type": "VEC2"
    },
    {
      "bufferView": 0,
      "byteOffset": 892536,
      "componentType": 5125,
      "count": 17712,
      "type": "SCALAR"
    }
  ],
  "asset": {
    "extras": {
      "author": "Sinornithosaurus (https://sketchfab.com/Sinornithosaurus)",
      "license": "CC-BY-4.0 (http://creativecommons.org/licenses/by/4.0/)",
      "source": "https://sketchfab.com/3d-models/oculink-egpu-56120f4fdd2d49139b40951ace5ee2c9",
      "title": "Oculink eGPU"
    },
    "generator": "Sketchfab-15.43.0",
    "version": "2.0"
  },
  "bufferViews": [
    {
      "buffer": 0,
      "byteLength": 963384,
      "name": "floatBufferViews",
      "target": 34963
    },
    {
      "buffer": 0,
      "byteLength": 633008,
      "byteOffset": 963384,
      "byteStride": 8,
      "name": "floatBufferViews",
      "target": 34962
    },
    {
      "buffer": 0,
      "byteLength": 1899024,
      "byteOffset": 1596392,
      "byteStride": 12,
      "name": "floatBufferViews",
      "target": 34962
    },
    {
      "buffer": 0,
      "byteLength": 1266016,
      "byteOffset": 3495416,
      "byteStride": 16,
      "name": "floatBufferViews",
      "target": 34962
    }
  ],
  "buffers": [
    {
      "byteLength": 4761432,
      "uri": "scene.bin"
    }
  ],
  "materials": [
    {
      "doubleSided": true,
      "name": "material_0",
      "pbrMetallicRoughness": {
        "metallicFactor": 0.0,
        "roughnessFactor": 0.6
      }
    }
  ],
  "meshes": [
    {
      "name": "Object_0",
      "primitives": [
        {
          "attributes": {
            "COLOR_0": 2,
            "NORMAL": 1,
            "POSITION": 0,
            "TEXCOORD_0": 3
          },
          "indices": 4,
          "material": 0,
          "mode": 4
        }
      ]
    },
    {
      "name": "Object_1",
      "primitives": [
        {
          "attributes": {
            "COLOR_0": 7,
            "NORMAL": 6,
            "POSITION": 5,
            "TEXCOORD_0": 8
          },
          "indices": 9,
          "material": 0,
          "mode": 4
        }
      ]
    },
    {
      "name": "Object_2",
      "primitives": [
        {
          "attributes": {
            "COLOR_0": 12,
            "NORMAL": 11,
            "POSITION": 10,
            "TEXCOORD_0": 13
          },
          "indices": 14,
          "material": 0,
          "mode": 4
        }
      ]
    },
    {
      "name": "Object_3",
      "primitives": [
        {
          "attributes": {
            "COLOR_0": 17,
            "NORMAL": 16,
            "POSITION": 15,
            "TEXCOORD_0": 18
          },
          "indices": 19,
          "material": 0,
          "mode": 4
        }
      ]
    },
    {
      "name": "Object_4",
      "primitives": [
        {
          "attributes": {
            "COLOR_0": 22,
            "NORMAL": 21,
            "POSITION": 20,
            "TEXCOORD_0": 23
          },
          "indices": 24,
          "material": 0,
          "mode": 4
        }
      ]
    },
    {
      "name": "Object_5",
      "primitives": [
        {
          "attributes": {
            "COLOR_0": 27,
            "NORMAL": 26,
            "POSITION": 25,
            "TEXCOORD_0": 28
          },
          "indices": 29,
          "material": 0,
          "mode": 4
        }
      ]
    },
    {
      "name": "Object_6",
      "primitives": [
        {
          "attributes": {
            "COLOR_0": 32,
            "NORMAL": 31,
            "POSITION": 30,
            "TEXCOORD_0": 33
          },
          "indices": 34,
          "material": 0,
          "mode": 4
        }
      ]
    },
    {
      "name": "Object_7",
      "primitives": [
        {
          "attributes": {
            "COLOR_0": 37,
            "NORMAL": 36,
            "POSITION": 35,
            "TEXCOORD_0": 38
          },
          "indices": 39,
          "material": 0,
          "mode": 4
        }
      ]
    }
  ],
  "nodes": [
    {
      "children": [
        1
      ],
      "matrix": [
        1.0,
        0.0,
        0.0,
        0.0,
        0.0,
        2.220446049250313e-16,
        -1.0,
        0.0,
        0.0,
        1.0,
        2.220446049250313e-16,
        0.0,
        0.0,
        0.0,
        0.0,
        1.0
      ],
      "name": "Sketchfab_model"
    },
    {
      "children": [
        2,
        3,
        4,
        5,
        6,
        7,
        8,
        9
      ],
      "name": "Oculink eGPU OBJ.obj.cleaner.materialmerger.gles"
    },
    {
      "mesh": 0,
      "name": "Object_2"
    },
    {
      "mesh": 1,
      "name": "Object_3"
    },
    {
      "mesh": 2,
      "name": "Object_4"
    },
    {
      "mesh": 3,
      "name": "Object_5"
    },
    {
      "mesh": 4,
      "name": "Object_6"
    },
    {
      "mesh": 5,
      "name": "Object_7"
    },
    {
      "mesh": 6,
      "name": "Object_8"
    },
    {
      "mesh": 7,
      "name": "Object_9"
    }
  ],
  "scene": 0,
  "scenes": [
    {
      "name": "Sketchfab_Scene",
      "nodes": [
        0
      ]
    }
  ]
}
